# 3ds Max Wavefront OBJ Exporter v0.97b - (c)2007 guruware
# File Created: 26.06.2016 20:33:53

#
# object Cylinder
#

v  86.8635 0.0000 -28.2237
v  73.8905 0.0000 -53.6846
v  53.6846 0.0000 -73.8905
v  86.8636 0.0000 28.2235
v  28.2237 0.0000 -86.8635
v  -0.0000 0.0000 -91.3337
v  -53.6846 0.0000 -73.8905
v  -28.2237 0.0000 -86.8635
v  -73.8905 0.0000 -53.6846
v  -86.8635 0.0000 -28.2236
v  -86.8635 0.0000 28.2237
v  -91.3337 0.0000 0.0000
v  -73.8905 0.0000 53.6847
v  -53.6846 0.0000 73.8906
v  0.0001 0.0000 91.3337
v  -28.2236 0.0000 86.8635
v  28.2238 0.0000 86.8635
v  53.6847 0.0000 73.8905
v  73.8906 0.0000 53.6845
v  91.3337 0.0000 -0.0000
# 20 vertices

vn 0.0000 1.0000 -0.0000
# 1 vertex normals

vt 0.4205 0.9894 0.0000
vt 0.2732 0.9409 0.0000
vt 0.1480 0.8492 0.0000
vt 0.7234 0.9426 0.0000
vt 0.0574 0.7234 0.0000
vt 0.0100 0.5756 0.0000
vt 0.0591 0.2732 0.0000
vt 0.0106 0.4205 0.0000
vt 0.1508 0.1480 0.0000
vt 0.2766 0.0574 0.0000
vt 0.5795 0.0106 0.0000
vt 0.4244 0.0100 0.0000
vt 0.7268 0.0591 0.0000
vt 0.8520 0.1508 0.0000
vt 0.9900 0.4244 0.0000
vt 0.9426 0.2766 0.0000
vt 0.9894 0.5795 0.0000
vt 0.9409 0.7268 0.0000
vt 0.8492 0.8520 0.0000
vt 0.5756 0.9900 0.0000
# 20 texture coords

g Cylinder
s 1
f 1/1/1 2/2/1 3/3/1 4/4/1 
f 3/3/1 5/5/1 6/6/1 7/7/1 
f 6/6/1 8/8/1 7/7/1 
f 7/7/1 9/9/1 10/10/1 11/11/1 
f 10/10/1 12/12/1 11/11/1 
f 11/11/1 13/13/1 14/14/1 15/15/1 
f 14/14/1 16/16/1 15/15/1 
f 15/15/1 17/17/1 18/18/1 4/4/1 
f 18/18/1 19/19/1 4/4/1 
f 11/11/1 15/15/1 4/4/1 7/7/1 
f 3/3/1 7/7/1 4/4/1 
f 20/20/1 1/1/1 4/4/1 
# 6 polygons - 6 triangles

